<?xml version="1.0" encoding="UTF-8" standalone="no"?>
<!DOCTYPE svg  PUBLIC '-//W3C//DTD SVG 1.1//EN'  'http://www.w3.org/Graphics/SVG/1.1/DTD/svg11.dtd'>
<svg stroke-linejoin="round" xmlns="http://www.w3.org/2000/svg" clip-rule="evenodd" fill-rule="evenodd" xml:space="preserve" height="100%" width="100%" version="1.1" xmlns:serif="http://www.serif.com/" stroke-miterlimit="1.4142" xmlns:xlink="http://www.w3.org/1999/xlink" viewBox="0 0 110 54">
    <g transform="translate(-73.625 -21.574)">
        <g fill="#fff" fill-rule="nonzero">
            <path d="m73.625 46.341l4.882-7.71h8.093c0.86-14.53 10.604-16.7 14.34-17.027 4.66-0.407 11.99 3.388 10.87 8.656-0.43 3.335-2.24 4.118-4.36 4.299-5.89 0.5-5.75-3.266-6.11-4.909-0.23-1.06-0.57-1.102-1.33-0.029-1.585 2.405-1.584 7.85-1.629 9.01h82.589l-4.53 7.808h-77.859l-0.065 23.292-11.716-0.033v-23.356l-13.175-0.001z"/>
            <path d="m120.35 58.175c2.57 0.016 4.82-2.562 4.85-4.847 0.02-2.46-1.69-5.247-5.1-5.34-1.12-0.03-4.04 0.225-5.67 1.644h-1.32v-0.606h-9.45v20.568h10.16s0.16-13.051 0.06-14.263c-0.06-0.697 0.98-2.367 1.22-1.703 1.31 3.576 3.49 4.537 5.25 4.547zm5.99-9.036h9.77v12.823c0.49 0.46 1.29 0.929 2.04 0.902 0.71-0.025 1.33-0.153 1.89-1.004v-12.78h9.6v23.294l-9.43 2.208v-7.61c-1.58 1.545-3.34 3.144-6.2 3.079-4.67-0.106-7.44-3.568-7.51-8.615l-0.16-12.297zm26.72 0.006l4.89 7.763 4.68-7.846-9.57 0.083zm14.07 15.237c-1.59-0.296-3.57-1.249-4.44-1.917l-1.72 4.444c3.5 1.582 7.47 3.409 11.45 3.37 4.54-0.046 10.42-3.05 10.52-7.32 0.16-7.308-6.84-7.89-10.72-8.79-0.44-0.104-0.91-0.351-1-0.76-0.1-0.447 0.2-1.098 0.65-1.21 2.98-0.758 6.59-0.185 10.25 1.408l0.82-3.311c-3-1.208-6.32-2.511-9.65-2.556-4.39-0.06-9.97 1.84-11.33 6.215-0.79 2.516-0.82 5.593 3.05 7.117 2.5 0.983 4.98 1.332 7.82 1.655 0.52 0.06 1.31 0.873 1.22 1.394-0.17 0.925-4.65 0.685-6.92 0.262v-0.001z"/>
        </g>
    </g>
</svg>
