<?xml version="1.0" encoding="UTF-8" standalone="no"?>
<!DOCTYPE svg  PUBLIC '-//W3C//DTD SVG 1.1//EN'  'http://www.w3.org/Graphics/SVG/1.1/DTD/svg11.dtd'>
<svg stroke-linejoin="round" xmlns="http://www.w3.org/2000/svg" clip-rule="evenodd" fill-rule="evenodd" xml:space="preserve" height="100%" width="100%" version="1.1" xmlns:serif="http://www.serif.com/" stroke-miterlimit="1.4142" xmlns:xlink="http://www.w3.org/1999/xlink" viewBox="0 0 226 29">
    <g transform="translate(-15.14 -38)">
        <path fill="#fff" d="m116.79 47.778h3.01v1.822h0.08c0.94-1.264 2.29-2.194 4.28-2.194 3.65 0 6.06 2.9 6.06 7.325 0 4.461-2.37 7.287-6.06 7.287-1.95 0-3.23-0.706-4.17-1.97h-0.07v6.692h-3.05l-0.08-18.962zm10.23 7.027c0-2.788-1.09-4.87-3.53-4.87-2.63 0-3.73 2.193-3.73 4.87 0 2.714 1.21 4.685 3.84 4.685 2.14 0 3.42-1.822 3.42-4.685zm8.2-5.168h0.08c1.01-1.413 2.25-2.193 4.21-2.193 2.93 0 4.77 1.933 4.77 4.907v9.295h-3.04v-8.923c0-1.599-1.02-2.64-2.71-2.64-1.88 0-3.27 1.413-3.27 3.42v8.143h-3.05v-19.259h3.05v7.25h-0.04zm20.04 10.225c-0.79 1.078-1.99 2.082-4.36 2.082-2.71 0-4.7-1.376-4.7-4.053 0-3.16 2.52-4.015 5.75-4.462 2.11-0.334 3.31-0.52 3.31-1.747 0-1.19-0.94-1.933-2.67-1.933-1.88 0-2.78 0.743-2.85 2.342h-2.94c0.08-2.528 1.84-4.61 5.76-4.61 3.76 0 5.71 1.561 5.71 4.759v6.06c0 1.004 0.19 1.413 1.21 1.227h0.07v1.933c-0.3 0.186-0.71 0.298-1.43 0.298-1.69 0.074-2.59-0.484-2.86-1.896zm0.04-3.198v-2.193c-0.68 0.408-1.73 0.669-2.74 0.892-2 0.446-3.2 0.818-3.2 2.416 0 1.525 1.01 1.934 2.33 1.934 2.41 0.037 3.61-1.599 3.61-3.049zm8.95-6.58h0.07c0.87-1.488 1.96-2.38 3.73-2.38 0.41 0 0.64 0.037 0.9 0.111v2.752h-0.07c-0.19-0.075-0.46-0.075-0.76-0.075-2.1 0-3.76 1.413-3.76 4.053v7.101h-3.04v-13.83h3l-0.07 2.267v0.001zm6.17-2.306h3.01v1.934h0.07c0.79-1.265 2.22-2.268 4.06-2.268 1.73 0 3.12 0.93 3.76 2.453h0.08c0.86-1.527 2.49-2.469 4.25-2.453 2.74 0 4.43 1.784 4.43 4.721v9.481h-3.08v-9.072c0-1.636-0.94-2.528-2.29-2.528-1.66 0-2.94 1.339-2.94 3.31v8.253h-3.04v-9.072c0-1.636-0.91-2.528-2.26-2.528-1.58 0-2.97 1.338-2.97 3.309v8.254h-3.04l-0.04-13.794zm30.64 12.084c-0.78 1.078-1.99 2.082-4.36 2.082-2.7 0-4.7-1.376-4.7-4.053 0-3.16 2.52-4.015 5.76-4.462 2.1-0.334 3.3-0.52 3.3-1.747 0-1.19-0.94-1.933-2.66-1.933-1.88 0-2.79 0.743-2.86 2.342h-2.94c0.08-2.528 1.85-4.61 5.76-4.61 3.76 0 5.71 1.561 5.71 4.759v6.06c0 1.004 0.19 1.413 1.21 1.227h0.07v1.933c-0.3 0.186-0.71 0.298-1.43 0.298-1.69 0.074-2.59-0.484-2.86-1.896zm0-3.198v-2.193c-0.67 0.408-1.72 0.669-2.74 0.892-1.99 0.446-3.2 0.818-3.2 2.416 0 1.525 1.02 1.934 2.34 1.934 2.44 0.037 3.6-1.599 3.6-3.049zm5.27-1.933c0-4.09 2.67-7.287 6.88-7.287 3.5 0 5.72 1.97 6.21 4.944h-3.05c-0.26-1.487-1.39-2.49-3.05-2.49-2.55 0-3.87 1.97-3.87 4.796 0 2.788 1.28 4.796 3.84 4.796 1.84 0 3-0.967 3.19-2.752h3.01c-0.23 3.086-2.52 5.28-6.17 5.28-4.28 0.037-6.99-3.197-6.99-7.287zm14.85 12.009v-2.491h0.08c0.34 0.111 0.75 0.186 1.24 0.186 1.16 0 1.69-0.41 2.1-1.562l0.57-1.561-5.27-13.497h3.28l2.59 7.213c0.45 1.227 0.9 2.9 0.9 2.9h0.08s0.45-1.673 0.9-2.9l2.48-7.213h3.16l-5.64 15.245c-1.05 2.974-2.11 3.867-4.51 3.867-0.66 0.04-1.32-0.023-1.96-0.186v-0.001zm-123.64-12.307c0.376 1.71 1.354 2.305 3.38 2.305 1.81 0 2.79-0.632 2.79-1.635 0-1.45-1.32-1.562-4.064-2.268-3.234-0.856-5.303-1.562-6.243-2.231-1.805-1.227-2.67-3.012-2.67-5.28 0-4.424 3.535-7.324 9.707-7.324 5.98 0 9.47 2.603 9.88 7.213h-7.03c-0.22-1.376-1.2-2.008-3.01-2.008-1.575 0-2.327 0.52-2.327 1.562 0 1.227 1.204 1.45 3.427 2.007 2.89 0.744 5.15 1.19 6.61 2.194 2.03 1.338 2.97 2.974 2.97 5.354 0 4.982-3.61 7.882-10.34 7.882-6.201 0-9.849-2.9-10.338-7.808h7.258v0.037zm-27.338-1.747c-0.414 6.023-4.438 9.555-11.094 9.555-7.408 0-11.882-4.647-11.882-12.083 0-7.51 4.55-12.084 11.77-12.084 6.73 0 10.68 3.347 11.13 9.295h-7.07c-0.187-2.305-1.54-3.569-3.948-3.569-2.933 0-4.362 2.12-4.362 6.358 0 4.164 1.58 6.32 4.588 6.32 2.256 0 3.685-1.338 3.91-3.792h6.958zm-1.58-13.98h7.596l3.911 14.798 4.174-14.798h7.297l-7.784 22.94h-7.408l-7.784-22.94h-0.002zm-45.237-0.632c-0.903 0-1.768 0.335-2.407 1.004l-4.85 4.834c-1.317 1.3-1.317 3.457 0 4.796l13.725 13.532 13.687-13.57c1.317-1.302 1.317-3.458 0-4.797l-4.85-4.796c-0.642-0.634-1.505-0.994-2.407-1.004-0.903 0-1.768 0.335-2.444 1.004l-3.986 3.978-4.024-3.978c-0.648-0.647-1.528-1.009-2.444-1.004v0.001zm214.24 9.704c-1.85 0-3.12-1.338-3.12-3.16 0-1.896 1.46-3.16 3.12-3.16 1.65 0 3.12 1.227 3.12 3.16s-1.43 3.16-3.12 3.16zm0-5.763c-1.4 0-2.45 1.079-2.45 2.603 0 1.45 0.94 2.603 2.45 2.603 1.35 0 2.44-1.079 2.44-2.603s-1.09-2.603-2.44-2.603zm-0.61 4.388h-0.56v-3.458h1.32c0.86 0 1.27 0.297 1.27 1.004 0 0.632-0.37 0.892-0.9 0.93l0.98 1.56h-0.64l-0.9-1.486h-0.53v1.45h-0.04zm0.64-1.934c0.45 0 0.83-0.037 0.83-0.52 0-0.446-0.41-0.484-0.79-0.484h-0.71v1.004h0.67z" fill-rule="nonzero"/>
    </g>
</svg>
