<?xml version="1.0" encoding="UTF-8" standalone="no"?>
<!DOCTYPE svg  PUBLIC '-//W3C//DTD SVG 1.1//EN'  'http://www.w3.org/Graphics/SVG/1.1/DTD/svg11.dtd'>
<svg stroke-linejoin="round" xmlns="http://www.w3.org/2000/svg" clip-rule="evenodd" fill-rule="evenodd" xml:space="preserve" height="100%" width="100%" version="1.1" xmlns:serif="http://www.serif.com/" stroke-miterlimit="1.4142" xmlns:xlink="http://www.w3.org/1999/xlink" viewBox="0 0 215 30">
    <g transform="translate(-20.614 -35.584)">
        <g fill="#fff">
            <path d="m39.856 53.29c-1.727 1.8-3.453 3.598-5.18 5.377-0.126-0.375-0.243-0.753-0.35-1.134 2.36-3.02 3.016-7.906 2.71-11.86 0.415-0.422 0.853-0.822 1.268-1.244 0.262 2.243 1.158 4.287 2.775 6.13-1.333 0-2.272-0.866-2.929-2.11-0.284 2.31-0.853 4.552-1.815 6.752 0.984-0.867 1.946-1.778 2.973-2.577 0.393-0.31 0.787-0.31 0.918 0 0.94 2.29 3.54 4.355 5.99 4.31 3.934-0.044 6.075-3.91 8.874-6.11-2.077-2.663-3.563-4.485-6.164-4.684-2.47-0.222-4.832 1.998-6.799 3.597-0.437 0.356-0.787 0.023-0.459-0.421 1.443-1.843 3.913-4.575 7.564-4.775 3.672-0.201 4.7 3.397 6.667 5.862 0.174 0.223 0.066 0.6-0.11 0.821-2.294 2.843-4.786 7.552-8.918 7.552-3.692-0.023-5.921-2.887-7.015-5.486z" fill-rule="nonzero"/>
            <path d="m50.72 48.649c0.328 0 0.589 0.266 0.589 0.599v0.007c0 0.324-0.266 0.591-0.59 0.592-0.306 0-0.568-0.267-0.568-0.6 0-0.332 0.262-0.598 0.569-0.598zm-18.514-0.822c0.218 0.443-0.242 0.732-0.635 0.421-1.857-1.532-2.58-3.308-2.077-5.13 0.372-1.377 1.945-2.664 3.323-2.621 0.874 0.022 1.443 0.755 1.99 1.354 0.372 0.378 0.24 1.066-0.241 0.622-0.918-0.8-2.164-0.91-2.71-0.044-0.918 1.534-0.656 3.466 0.35 5.398zm11.498-0.756c-0.787 0.733-1.422 1.488-1.945 2.133 0.328-1.377 0.765-2.754 0.873-4.176 0.109-1.843-0.174-3.93-2.163-4.375-1.509-0.333-2.777 1-3.586 2.133-0.218 0.31-0.524 0.554-0.895 0.244-0.787-0.621-1.116-1.732-0.874-2.798 0.196-0.933 0.547-1.91 0.94-2.843 0.416-0.932 0.897-0.555 0.788 0.179-0.13 0.91-0.613 1.644-0.743 2.487-0.065 0.556 0.502 1.045 0.83 0.6 0.766-1.045 2.559-1.867 3.827-1.733 1.814 0.179 2.928 1.911 3.279 3.776 0.28 1.442 0.018 2.93-0.331 4.373zm-9.684-8.706c0.7 0.422 0.547 1.311-0.436 1.444-1.094 0.155-1.509-0.245-2.077-0.845-0.24-0.266-0.962-1.133-0.393-1.954 0.196-0.289 0.415-0.645 0.59-1.022 0.24-0.466 0.895-0.554 1.223-0.132 0.569 0.732 1.29 1.355 1.967 1.954 0.329 0.266 0.109 0.51-0.306 0.4-1.486-0.356-1.967-0.667-2.514-1.312-0.022 1.135 0.59 0.645 1.946 1.467zm3.061 17.815c0.24-0.245 0.48-0.49 0.7-0.735 0.699 0.09 1.376 0.335 1.857 0.8 1.857 1.71 3.147 4.243 3.518 6.774 0.152 1-1.202 2.31-2.164 2.066-3.65-0.933-7.125-2.821-10.077-5.197-2.645-2.155-5.355-4.643-7.607-7.462-1.485-1.868-2.797-4.265-2.688-6.664 0.045-1.178 1.815-2.133 2.929-1.866 1.946 0.444 3.387 1.266 4.896 2.222 0.568 0.354 0.611 0.955-0.305 0.599-1.619-0.645-3.235-1.555-5.049-1.444-0.918 0.045-1.442 1.177-0.94 2.665 1.377 3.909 5.071 6.554 8.132 9.26 2.797 2.534 5.989 4.622 9.31 6.353 1.684 0.89 2.667-0.4 2.406-1.843-0.394-2.088-1.705-3.999-3.367-5.262-0.327-0.244-0.896-0.313-1.55-0.267l-0.001 0.001z" fill-rule="nonzero"/>
            <path d="m35.463 55.69c-0.131 0.293-0.285 0.575-0.459 0.844-0.984 0.133-1.29-0.598-0.984-1.555 0.329-0.955 1.334-0.998 2.12-0.933-0.059 0.19-0.132 0.376-0.218 0.555-0.372 0-0.743 0-1.006 0.223-0.48 0.421-0.328 1.177 0.371 0.91 0.067-0.022 0.132-0.022 0.176-0.043v-0.001zm1.005-2.822c-0.065 0.267-0.13 0.511-0.196 0.778-0.196-0.244-0.48-0.511-0.677-0.533-1.356-0.245-2.623 0.421-3.825 0.554-1.115 0.133-2.864 0.424-3.323-0.645-0.393-0.889 1.334-1.555 2.252-1.865 0.809-0.287 1.748-0.09 2.578 0.155 0.81 0.223 0.897-0.31 0.11-0.688-1.617-0.8-3.41-1.089-5.312-0.688-0.81 0.155-1.53 0.666-2.316 0.843-1.246 0.244-2.23-1.177-1.334-2.154 1.224-1.31 3.279-1.665 5.028-1.533 0.415 0.045 0.59 0.91 0.086 0.845-1.18-0.133-2.688 0.088-3.76 0.91-0.61 0.489-0.152 1.2 0.766 0.733 1.486-0.755 2.47-0.599 4.152-0.666 0.59 0 1.946 0.222 2.47 0.489 0.503 0.244 0.962 0.512 1.42 0.911 0.7 0.599 0.722 1.844-0.304 1.643-0.765-0.155-1.836 0.068-2.995-0.043-0.809-0.069-1.967 0.355-1.334 0.932 0.59 0.533 1.618 0 2.428-0.09 1.092-0.11 2.273-0.932 3.3-0.487 0.262 0.11 0.545 0.333 0.786 0.6v-0.001zm0.131 1.71c0.13-0.332 0.262-0.666 0.372-0.998 0.175 0.4 0.175 0.778-0.175 0.933l-0.197 0.065zm192.64 5.087c-0.13 0.068-4.42 0.734-5.75 0.068-1.36-0.666-1.6-2.088-0.17-2.666 1.39-0.598 1.39 0.335 1.5-1.265 0.13-1.623-0.04-5.932-0.04-5.932l-1.88-1.242c-0.09-0.067-1.07-1.445 0.24-1.977 1.29-0.533 3.15-0.599 4.15-0.311 1.01 0.311 1.22 1.51 1.22 1.51l2.19-1.133s2.03-0.6 3.32 0.6c1.32 1.177 1.21 2.265 0.77 3.043-0.44 0.777-0.79 2.22-1.33 2.754-0.57 0.533-1.88-0.244-1.88-0.244s-0.53-0.821-0.35-1.843c0.17-1.044-0.18-1.266 0-1.333 0.17-0.045-0.24-0.89-0.83 0-0.6 0.911-2.06 3.665-1.88 6.53 0.65 0.31 1.42 0.734 1.81 1.11 0.41 0.424 0.94 0.777 0.48 1.377-0.39 0.489-0.94 0.708-1.57 0.954zm-23.67-3.931c0.19-0.066 1.22-0.577 1.64 0.51 0.29 0.728 0.13 1.562-0.4 2.132-0.26 0.267-3.19 2.224-4.61 1.889-1.4-0.335-4.13-1.623-4.18-4.643-0.06-3.041 0-4.596 0-4.596l-1.13 0.043s-1.9-0.82-2.01-2.042 0.76-1.333 1.46-1.333 1.29-0.267 1.29-0.267 0.88-0.399 0.88-1.066c0-0.666 0.21-3.109 0.21-3.109s0.49-1.488 2.12-0.822c1.64 0.667 1.69 0.6 1.64 1.6-0.06 1 0 1.732 0 1.999 0 0.287-0.17 0.665 0.7 0.665 0.88 0 1.62-0.333 2.34 0.222 0.7 0.556 1.47 1.067 1.25 1.822-0.22 0.776-0.33 0.955-0.98 1.11-0.66 0.177-2.56 0.555-2.56 0.555s-0.97-0.155-1.07 0.955c-0.12 1.111-0.33 4.221-0.33 4.221s0.21 1.688 1.4 1.266c0.87-0.267 1.44-0.798 2.34-1.111z" fill-rule="nonzero"/>
            <path d="m219.47 55.046l-8.29 0.976s-1.83-0.354-0.13 1.201c1.73 1.576 7.79-0.51 8.33-0.935 0.57-0.421 2.06-0.31 2.21 0.801 0.15 1.066-0.57 1.797-0.92 2.066-0.35 0.242-4.9 2.488-8.02 1.797-3.13-0.666-5.99-2.866-5.38-7.173 0.63-4.332 4.59-6.907 7.85-7.53 3.23-0.621 5.66 1.022 6.38 3.066 0.74 2.067 0.07 3.887-0.06 4.42-0.14 0.511-0.75 1.222-1.97 1.31v0.001zm-7.37-2.645l4.35-0.486c0.55-0.046 1.33-0.267 1.55-0.778 0.4-0.911 0.11-2.043-1.31-1.933-1.86 0.155-3.45 1.62-4.59 3.197zm-20.13 2.645l-8.29 0.976s-1.83-0.354-0.1 1.201c1.7 1.576 7.78-0.51 8.32-0.935 0.55-0.421 2.04-0.31 2.19 0.801 0.15 1.066-0.57 1.797-0.92 2.066-0.35 0.242-4.89 2.488-8.02 1.797-3.13-0.666-5.99-2.866-5.36-7.173 0.61-4.332 4.59-6.907 7.83-7.53 3.23-0.621 5.66 1.022 6.4 3.066 0.75 2.067 0.05 3.887-0.08 4.42-0.11 0.511-0.73 1.222-1.97 1.31v0.001zm-7.37-2.645l4.37-0.486c0.53-0.046 1.31-0.267 1.53-0.778 0.4-0.911 0.11-2.043-1.31-1.933-1.83 0.155-3.43 1.62-4.59 3.197zm-7.91 2.645l-8.31 0.976s-1.83-0.354-0.11 1.201c1.73 1.576 7.79-0.51 8.33-0.935 0.55-0.421 2.06-0.31 2.21 0.801 0.15 1.066-0.57 1.797-0.92 2.066-0.35 0.242-4.92 2.488-8.02 1.797-3.13-0.666-5.99-2.866-5.38-7.173 0.62-4.332 4.59-6.907 7.83-7.53 3.26-0.621 5.66 1.022 6.4 3.066 0.74 2.067 0.07 3.887-0.06 4.42-0.13 0.511-0.75 1.222-1.97 1.31v0.001zm-7.37-2.645l4.35-0.486c0.55-0.046 1.34-0.267 1.56-0.778 0.39-0.911 0.11-2.043-1.31-1.933-1.86 0.155-3.46 1.62-4.6 3.197z"/>
            <path d="m161.85 60.176s-6.43 1-7.59 0.18c-1.16-0.824-2.1-2.31-0.35-2.955 1.73-0.623 1.79-0.335 1.79-2.401 0-2.086 0.29-10.127 0.29-10.127s0.24-1.355-0.74-1.244c-0.99 0.112-2.15 0.179-2.39 1-0.24 0.844-0.22 1.842-0.46 2.554-0.26 0.71-2.86 1.978-3.01-0.822-0.15-2.821 0.28-3.909 0.28-4.509 0-0.599 0.53-1.643 1.93-1.598 1.37 0.067 13.48-0.822 13.48-0.822s1.93-0.11 1.97 2.198c0.06 2.288 0.06 3.754 0.13 4.554 0.04 0.777-1.46 2.265-2.56 1.11-1.09-1.132-1.29-2.132-1.27-2.598 0.03-0.467-0.22-1.666-1.57-1.244-1.35 0.421-1.38 1.31-1.38 2.487 0 1.178-0.48 8.708-0.48 8.708s-0.35 1.42 0.94 1.997c1.27 0.58 2.14 0.979 2.03 2.11-0.13 1.133-0.41 1.356-1.04 1.422zm-24.94 0.157c-1.58 0.023-6.62-0.734-8.13-1.845-1.53-1.087-1.12-2.663 0.7-2.332 1.83 0.356 5.26 1.377 6.97 0.978 1.38-0.288-2.6-1.31-3.3-1.667-0.68-0.355-4.07-1.532-4.42-3.531-0.39-2.021 1.6-3.332 2.32-3.977 0.74-0.666 2.89-1.754 4.28-1.754 1.4 0 2.58 0.266 3.63 0.622 1.03 0.334 0.22-0.688 1.29-0.71 1.07 0 1.66 0.488 1.88 1.887s0.03 4.22-1.07 5.018c-1.09 0.8-1.62 0.09-2.18-0.753-0.57-0.845-0.33-2.266-0.38-2.266-0.06 0 0.22-0.621-0.74-0.822-0.94-0.2-3.67 0.977-4.18 1.689-0.52 0.731-0.52 0.8 0 0.975 0.51 0.18 6.54 2.488 7.83 3.665 1.27 1.179 1.14 2.198-0.04 3.066-1.2 0.89-2.73 1.732-4.46 1.757zm-15.5-17.325s0.04-2.266 2.16-2.266c2.1 0 2.28 1.377 2.3 2.044 0.04 0.666-0.99 2.71-1.69 2.665-0.69-0.024-2.07-0.667-2.31-0.979-0.31-0.332-0.44-0.998-0.46-1.464zm4.7 17.124h-4.68s-1.64-0.31-1.75-1.666c-0.1-1.354 0.57-1.044 1.01-1.354 0.41-0.313 1.01-0.288 1.01-1.512v-4.442s-2.65-0.755-2.5-1.954c0.16-1.178 1.01-1.355 1.53-1.465 0.55-0.112 3.04-0.422 3.98-0.112 0.96 0.333 1.03 0.822 1.03 1.844 0 1.044-0.22 6.13-0.22 6.13s-0.15 0.932 0.59 1.356c0.74 0.421 1.49 0.465 1.42 1.71-0.04 1.242-1 1.42-1.42 1.465zm-12.13-2.51c0.52-0.244 1.42 1.688-0.37 2.176-1.82 0.467-5.34 0.934-6.39 0.223-1.07-0.688-1.35-2.11-0.19-2.643 1.15-0.49 1.44-0.089 1.44-1.666v-4.864s-0.2-0.622-1.03-1.155c-0.83-0.511-2.53-1.777-0.13-2.777 2.41-0.999 3.74-0.287 4.26 0.245 0.51 0.51 0.68 0.889 0.68 0.889l1.99-1c0.07-0.023 1.42-0.69 3.06 0.377 1.66 1.089 1.49 1.467 1.36 2.71-0.16 1.22-1.23 3.42-1.45 3.31-0.22-0.111-1.16 1.265-1.99-0.29s-0.37-2.797-0.37-2.797-0.28-1.222-1.03-0.223c-0.74 0.978-1.83 4.376-1.66 5.42 0.2 1.044 0.37 1.465 0.92 1.598 0.57 0.134 0.9 0.468 0.9 0.468v-0.001z" fill-rule="nonzero"/>
            <path d="m101.08 57.623c0.52-0.245 1.42 1.687-0.37 2.175-1.815 0.467-5.335 0.934-6.383 0.223-1.07-0.688-1.354-2.11-0.196-2.643 1.159-0.49 1.442-0.089 1.442-1.666v-4.864s-0.196-0.622-1.027-1.155c-0.831-0.511-2.536-1.777-0.13-2.777 2.403-0.999 3.736-0.287 4.262 0.245 0.502 0.51 0.677 0.889 0.677 0.889l1.985-1c0.07-0.023 1.42-0.69 3.06 0.377 1.64 1.089 1.49 1.467 1.34 2.71-0.13 1.22-1.2 3.42-1.42 3.31-0.22-0.111-1.16 1.265-1.99-0.29s-0.37-2.797-0.37-2.797-0.29-1.222-1.03-0.223c-0.74 0.978-1.836 4.376-1.661 5.42 0.196 1.044 0.37 1.465 0.921 1.598 0.56 0.134 0.89 0.468 0.89 0.468z" fill-rule="nonzero"/>
            <path d="m92.819 58.156c0.569 0.22 0.94 1.598-0.635 2.465-1.464 0.82-4.437 0.753-5.246-0.69-1.377 0.535-2.84 0.8-4.437 0.845-2.557 0.066-5.99-1.421-5.42-3.532 1.201-4.51 8.196-5.509 10.316-5.575 0.132-1.199 0.284-1.844-0.852-2.155-0.678-0.177-2.622 0.112-3.912 1.378-1.268 1.266-2.864 1.821-3.41 1.509-0.525-0.31-2.82-1.466 0.371-3.575 3.17-2.11 7.127-3.798 9.727-1.133 2.602 2.642 1.925 6.352 1.793 7.596-0.132 1.242-0.044 1.598-0.044 1.598s-0.218 0.49 0.59 0.71c0.81 0.246 1.159 0.559 1.159 0.559zm-6.01-2.556c-0.132-0.09-3.39 0.645-4 1.177-0.786 0.687-0.656 0.687-0.043 0.712 0.502 0.022 3.825-0.69 4.393-1.068 0.83-0.554-0.11-0.666-0.35-0.82v-0.001z" fill-rule="nonzero"/>
            <path d="m62.983 60.732c-2.049 0.472-4.185 0.418-6.208-0.157-1.246-0.332-1.508-2.487-0.088-2.599 0.635-0.043 1.224-0.443 1.246-1.53l0.283-10.64c0.022-1.134-0.525-1.733-1.398-2.11-1.399-0.6-1.246-2.043 0-2.577 2.405-1.065 4.765-0.954 6.973-0.132 1.159 0.421 1.508 2.332 0.262 2.51-0.853 0.11-1.749 0.688-1.793 1.955l-0.13 3.198c-0.044 0.844 0.284 1.509 0.853 1.488l6.841-0.198c0.896-0.024 1.18-0.845 1.202-1.49l0.066-3.332c0.022-1.376-0.306-1.665-1.137-1.887-1.29-0.377-1.443-2.776 0.218-3.065 2.033-0.356 4.109-0.466 5.967-0.067 1.619 0.356 1.224 2.843 0.329 2.91-0.656 0.067-1.202 0.29-1.333 2.444l-0.59 9.972c-0.065 0.933 0.436 1.466 0.94 1.555 0.874 0.178 2.011 2.066-0.218 2.976-1.224 0.488-3.191 0.221-5.443 0.333-1.421 0.068-2.251-2.955-0.59-3.243 0.526-0.087 1.465 0.068 1.465-1.487v-0.932c0-0.712-0.37-1.068-1.07-1.022l-6.164 0.267c-0.765 0.022-1.53 0.954-1.464 1.753 0.087 1.177 0.59 1.71 0.917 1.821 1.506 0.465 2.207 2.819 0.064 3.286z" fill-rule="nonzero"/>
        </g>
    </g>
</svg>
