<?xml version="1.0" encoding="UTF-8" standalone="no"?>
<!DOCTYPE svg  PUBLIC '-//W3C//DTD SVG 1.1//EN'  'http://www.w3.org/Graphics/SVG/1.1/DTD/svg11.dtd'>
<svg stroke-linejoin="round" xmlns="http://www.w3.org/2000/svg" clip-rule="evenodd" fill-rule="evenodd" xml:space="preserve" height="100%" width="100%" version="1.1" xmlns:serif="http://www.serif.com/" stroke-miterlimit="1.4142" xmlns:xlink="http://www.w3.org/1999/xlink" viewBox="0 0 176 39">
    <g transform="translate(-40.122 -30.358)">
        <path fill="#fff" d="m58.841 55.879c3.566 0 6.457-2.946 6.457-6.577 0-3.63-2.891-6.576-6.457-6.576-3.564 0-6.455 2.945-6.455 6.576s2.891 6.577 6.455 6.577zm0 6.21c6.867 0 12.433-5.67 12.433-12.665 0-6.994-5.566-12.663-12.433-12.663-6.865 0-12.432 5.67-12.432 12.663 0 6.994 5.567 12.665 12.432 12.665zm-18.719-12.665c0-10.53 8.381-19.066 18.72-19.066 10.337 0 18.719 8.536 18.719 19.066 0 10.531-8.382 19.067-18.72 19.067s-18.719-8.536-18.719-19.067zm43.518-13.684h21.33v5.481h-7.337v21.97h-6.518v-21.928h-7.475v-5.523zm53.45 5.523h-5.98v5.48s4.67 0.017 5.37 0c1.87-0.039 3.32-0.891 3.32-2.76 0-2.033-1.23-2.72-2.71-2.72zm-12.2-5.523h12.66c7.2 0 8.19 5.015 8.19 7.938 0 4.244-3.58 6.377-3.9 6.458 0 0 3.15 1.198 3.15 4.833v5.116c0 2.052 1.23 2.62 1.45 3.107h-5.14c-2.45-0.284-2.41-2.273-2.39-3.411v-4.405c-0.06-1.076-0.38-2.276-2.59-2.316h-5.21v10.132h-6.24l0.02-27.452zm48.36 0v27.45h19.42v-5.643h-13.08v-6.133h11.17v-5.197h-11.17v-4.954h13.08v-5.523h-19.42zm20.34 5.523h7.69v21.927h6.38v-21.927h7.81v-5.523h-21.88v5.523zm-81.88 4.162l-2.3 7.086h4.73l-2.43-7.086zm-3.62-9.69h6.92l9.43 27.456h-6.71l-1.95-5.705h-7.95l-1.84 5.705h-6.645l8.745-27.456zm62.93 12.127h-11.58v5.34h5.5c-0.01 1.098 0.16 2.195-1.13 3.738-0.44 0.525-1.95 1.703-4.05 1.703-1.78 0-3.05-0.516-4.16-1.473-2.44-2.115-3.02-6.065-3.02-8.132 0-2.599 1.02-9.054 7.26-9.319 0 0 4.2-0.277 5.3 4.893h5.84c-0.12-2.62-3.11-9.978-11.14-9.99-2.78-0.003-6.3 0.847-9.21 3.819-2.11 2.153-4.01 5.768-4.01 10.86 0 5.526 2 9.118 3.82 11.09 3.21 3.466 6.44 3.733 8.12 3.733 1.34 0 3.89-0.202 7.2-2.477l0.87 1.543h4.39v-15.328zm39.6 13.524h0.33c0.22 0 0.37-0.034 0.37-0.268 0-0.21-0.21-0.242-0.38-0.242h-0.32v0.51zm-0.38-0.81h0.72c0.47 0 0.74 0.151 0.74 0.574 0 0.355-0.22 0.492-0.5 0.517l0.51 0.847h-0.39l-0.47-0.828h-0.23v0.828h-0.38v-1.938zm0.68 2.336c0.7 0 1.28-0.574 1.28-1.365 0-0.787-0.58-1.355-1.28-1.355-0.72 0-1.29 0.568-1.29 1.355 0 0.79 0.57 1.365 1.29 1.365zm0-3.092c0.92 0 1.74 0.676 1.74 1.727 0 1.054-0.82 1.734-1.74 1.734-0.93 0-1.75-0.68-1.75-1.734 0-1.05 0.82-1.727 1.75-1.727z" fill-rule="nonzero"/>
    </g>
</svg>
