<?xml version="1.0" encoding="UTF-8" standalone="no"?>
<!DOCTYPE svg  PUBLIC '-//W3C//DTD SVG 1.1//EN'  'http://www.w3.org/Graphics/SVG/1.1/DTD/svg11.dtd'>
<svg stroke-linejoin="round" xmlns="http://www.w3.org/2000/svg" clip-rule="evenodd" fill-rule="evenodd" xml:space="preserve" height="100%" width="100%" version="1.1" xmlns:serif="http://www.serif.com/" stroke-miterlimit="1.4142" xmlns:xlink="http://www.w3.org/1999/xlink" viewBox="0 0 216 38">
    <g transform="translate(-20.067 -31.079)">
        <path fill="#fff" d="m107.12 55.878l6.3-14.34h-5.82l-0.97 2.172c-0.85-1.922-3.02-2.732-4.6-2.607-4.785 0.311-8.717 7.45-9.749 10.61 0 0-3.39 3.417-5.756 3.845-1.753 0.249 5.756-10.61 2.117-13.094-2.18-1.486-5.693-0.436-7.508 1.238 0 0 0.792-1.674 0.845-1.86h-5.329c-1.815 2.483-4.36 5.153-6.36 5.954 0-5.58-2.358-6.702-6.3-6.702-6.725 0-11.751 8.313-11.867 13.217-5.756 1.362-7.748 0.25-10.72-1.61 7.144-14.767 9.261-15.951 10.418-15.889 2.001 0.063-0.908 3.783-2.722 6.827 0-0.062 4.661 0.063 4.661 0 2.358-3.72 7.57-12.096-1.272-12.096-7.206 0-13.38 14.028-16.351 18.923-2.118-0.685-4.662-1.37-7.206-1.486-4.662-0.125-9.208 1.922-8.843 7.076 0.365 5.519 12.962 7.753 17.748 0.988 4.243 2.483 8.54 4.406 14.599 1.923 6.236 6.64 14.536-1.736 16.289-5.457 0.729-0.436 2.784-1.486 3.451-1.61 0 0-2.242 4.841-4.421 9.621h5.391s4.786-9.684 4.848-9.746c1.815-3.659 3.941-4.78 5.027-2.92 0.907 1.611-6.236 11.856-0.908 12.417 2.91 0.311 5.756-1.424 10.178-4.032 0.178 3.907 4.18 3.97 6.965 2.982l-2.721 6.078 4.666 2.608 5.26-11.731 2 3.106 4-1.487c1.03 2.048 2.12 2.858 5.15 3.036 4.6 0.311 6.9-3.783 7.33-10.672 0.12-3.17 1.27-4.905 2.42-8.625 0 0-2.97-2.36-2.91-2.297-7.4 2.857-10.49 14.09-17.33 15.639v0.001zm-80.733-0.81c-0.24-1.113 3.88-2.92 6.121-0.25-1.272 1.995-5.694 2.182-6.12 0.25h-0.001zm31.43 0.81c-1.752 0-0.542-4.53 1.273-5.768 1.272 1.175 1.877 1.86 3.63 2.11-1.148 1.798-3.14 3.658-4.902 3.658h-0.001zm7.447-7.877c-2.002 0.311-2.366-0.436-2.91-1.424 1.638-2.493 3.826-0.748 2.91 1.424zm36.576 6.079c-5.083 2.795-4.843-1.86-2.655-4.967 2.245-3.168 4.725-3.23 5.325-0.747l-2.67 5.714zm14.91 0.685c1.08-2.234 2.18-3.845 3.94-5.705 0.35 5.768-2.61 9.052-3.94 5.705zm30.03-23.587c-3.99 0.498-8.05 2.11-10.72 5.768l2.97 4.281c2.42-2.42 4.42-3.23 7.21-3.658l-9.02 19.67 4.84 4.282c8.42 1.175 17.39-6.64 18.6-16.573 1.15-9.862-7.28-14.633-13.88-13.77zm-2.54 24.45l7.99-17.623c7.88 3.231-0.11 17.259-7.99 17.624v-0.001zm88.66-14.899c-7.74 3.044-9.44 12.594-17.19 15.639l6.17-14.402-5.99-0.125-0.85 1.923c-7.27-5.581-12.36 4.157-14.71 9.684 0 0-2.25 2.857-4.06 2.11-0.61-0.312-0.48-1.425 0.06-2.67l4.9-10.922h-5.57c0 0.062-4.72 10.61-4.72 10.61-1.03 2.42-2.3 3.355-3.75 3.355-1.58 0-1.15-1.37-0.37-3.168l4.73-10.797h-5.7l-4.36 9.622c-0.9 2.047-5.15 5.705-5.87 4.406-1.33-2.359 2.97-5.768 3.64-9l-1.03-3.595s-4.97-0.81-6.43-1.3c0 0 0.13-1.548 0-1.86l-4.6-1.424c-1.87 10.984-4.24 13.716-6.29 16.938-1.15 1.736-4.91 5.457-4.91 5.457h6.61c3.08-2.982 6.42-8.314 8.23-14.455 1.28 0.124 2.12 0.062 2.12 0.747 0 1.237-4.54 7.139-2.6 12.043 1.14 3.107 6.77 2.297 10.35-1.175 1.81 3.347 5.09 3.783 9.93 1.3 3.57 3.72 7.2 0.623 9.57-0.561 1.57 2.11 3.15 2.857 7.21 1.798l-2.42 5.278 4.9 2.733 5.26-11.295 1.64 3.222c2.42 0 1.88-0.935 4-1.611 4.05 6.453 12.29 3.605 12.47-7.326 0.12-4.406 1.7-6.266 2.67-8.874-0.01-0.009-3.04-2.243-3.04-2.305zm-23.19 14.775c-4.05 1.424-4.18-2.047-2.91-4.593 0.61-1.237 3.58-4.219 5.94-2.358l-3.03 6.951zm19.62-6.266c-0.31 3.356-0.85 6.702-1.88 7.014-1.27 0.374-1.81 0.062-2.18-0.988-0.36-1.06 2.24-4.228 4.06-6.026z" fill-rule="nonzero"/>
    </g>
</svg>
