<?xml version="1.0" encoding="UTF-8" standalone="no"?>
<!DOCTYPE svg  PUBLIC '-//W3C//DTD SVG 1.1//EN'  'http://www.w3.org/Graphics/SVG/1.1/DTD/svg11.dtd'>
<svg stroke-linejoin="round" xmlns="http://www.w3.org/2000/svg" xml:space="preserve" height="100%" width="100%" version="1.1" stroke-miterlimit="1.4142" clip-rule="evenodd" xmlns:xlink="http://www.w3.org/1999/xlink" viewBox="0 0 300 67"><path fill="#fff" d="m32.9 48.9c14.9 2.7 25.8-11.7 32.7-24.1 2.8-5 7-18.1 2.3-23-4.4-4.8-7.7 1.5-10.3 3.6l2 2.4c4 5 0.5 14.6-1.8 19.7-3.5 6.3-10.2 15.8-18 14.4-1.8-0.6-3.2-2-3.7-3.8 4.2-4.2 9.2-11.5 12-16.3 2.3-4 6.4-11.6 2.7-14.7-3.1-2.2-9.3 0.9-12.7 3.8-1.9 1.6-3.5 3.5-5 5.5-4.4 5.6-8.5 15.6-8.1 23.3-2.1 1.5-4.4 3-7.2 2.1-2.8-0.6-3.3-3-3.7-4.8-1.7-11.2 9.5-25.2 15.7-33.3-2.8 0.8-5.6 1.3-8.5 1.5-8.3 0.4-14.4-3.5-18.9 2-1.4 1.9-2.2 4.2-2.4 6.5 1.8-1.6 4.6-1.2 7.2-1 4.5 0.4 6.7 0.9 10.8-0.1-3.7 5.1-9.7 15.1-10.8 21.4-0.6 4.2-0.5 10.7 3 13.7 5.9 3.9 11.8 1.2 17-2.4 1.4 1.8 3.4 3.1 5.7 3.6zm10-34.7c1.6-0.8 1.1 1.6 1.1 1.6-0.2 2.6-2.1 5.8-3.5 8.2s-6.3 8.3-8.4 9.5c0.1-3.5 3.9-11.2 5.8-14.1 1.2-2.2 2.9-3.9 5-5.2z"/><path fill="#fff" d="m279.9 21c-0.8 1.1-3.6 4.1-4.5 5.1l-0.5 0.4c-7.5 7.6-13.3 11.9-16.6 12.7-2.3 0.5-3.3 0.6-4.4-1.4v-0.1l-0.1-1c0-2.7 3.5-8.8 8.3-12.9 1.8-1.6 2-2.3 2-2.5-0.4-0.9-1.1-1.5-2-1.9-1.3-0.1-3.3 1.3-4.7 2.3-0.9 0.6-3.6 3.1-6.4 5.7-2.4 2.2-4.8 4.4-6.2 5.5 0 0-1.9 1.5-2.3 1.9 0-0.4 0.1-1.2 0.1-1.2 0-1.4 1.5-3.8 3.6-6.9 0.8-1.2 2.7-4.5 2.9-5v-0.1c-0.6-1-1.6-1.7-2.7-1.8-0.1 0-0.8 0.6-0.8 0.6-1.6 1.3-5 4.4-8.3 7.3-3 2.7-5.9 5.3-6.6 5.8-4.6 3.6-9.6 6.4-15.1 8.5-0.9 0.2-3.7 0.9-5.2-0.7 0 0-0.3-0.4-0.5-0.6l0.7-0.3c4.1-1.8 9.3-4.2 13.1-7.4 0.1 0 5.8-5 5.8-9.8v-0.6c-0.4-1.8-1.9-2.3-4-2.5-7 0-13.2 4.3-16.4 8l-0.6 0.6c-1.5 1.6-6.1 6.6-7.9 11l-0.1 0.2c-0.1 0-0.1 0-0.2 0.1-3.3 1.5-6.7 2.5-10.3 3-2 0.3-4.9 0.4-6.6-1 0 0-0.4-0.3-0.6-0.5l7.9-4.3c6.2-3.8 10.4-9.6 10.4-12.6-0.1-3.5-3.4-4.3-6.1-4.3-4 0-7.8 1.5-12.5 5-2.7 2-8.4 8.5-10 15.2 0 0 0 0.2-0.1 0.3l-0.6 0.2c-3 0.7-8 2-8.9-1-1.5-4.8 3.3-9.3 7.1-13l2.1-2.1c0.4-0.5 0.6-1.1 0.6-1.7 0-0.3-0.2-0.5-0.4-0.7-2-0.9-4-0.2-6.1 0.5-1.5 0.7-3.2 1-4.9 1h-0.5v-0.5c0.1-0.8 0.6-1.6 1.2-2.1l0.2-0.2c0.1-0.2 0.2-0.4 0.1-0.5 0-0.2 0-0.4-0.1-0.6-0.1-0.3-0.3-0.5-0.6-0.5-1.2-0.1-3.2 1-5.1 2.9s-2.9 3.8-2.9 5.2v0.4c-0.2 3.1-2.9 6-6.6 10.1l-1.6 1.8-0.6 0.6c-1.6 1.5-2.9 3.1-4.1 4.9l-0.1 0.3 0.3-0.1c1.6-0.5 6.1-2.7 14.3-12.9 0.1-0.1 0.1-0.2 0.2-0.2h0.3c0.5 0 0.9-0.1 1.3-0.3 0.8-0.5 1.8-0.5 2.7-0.1l0.5 0.3-1.6 2c-2.3 2.8-4.6 5.8-4.6 9.3 0 0.7 0.1 1.4 0.3 2.1 0.4 2 2.5 3 4.2 3.2 3.4 0.6 7.6-1.3 11.4-2.9l1.9-0.8c0.6-0.2 1.3 0.1 1.5 0.7v0.2c0.4 1 1.3 1.7 2.3 2.1 5.5 2.5 13.5 1.2 23.9-3.6l0.5-0.2c0.1 0.2 0.2 0.5 0.2 0.5 0.7 2 2.4 3.5 4.4 3.9 8.9 1.2 16.3-3.9 23.4-8.8l3.8-2.9c0.1 0.1 0.7 0.8 0.8 0.9-0.1 0.2-3.1 4.4-3.1 4.4-1.1 1.4-2 3-2.6 4.6l-0.2 0.7 0.1 0.4c0.3 0.3 0.7 0.5 1.1 0.5 5.4-0.8 10.6-5.2 14.1-8.1l1-0.9c1-1 2.2-1.9 3.5-2.6l0.3-0.1 0.2 0.3v0.1c-0.1 0.5-0.4 0.9-0.7 1.3l-0.5 0.9c-0.8 1.4-1.2 3-1.4 4.5 0 0.6 0.1 1.2 0.5 1.7 1.6 2.5 3 2.6 4.6 2.7h0.5c6.4-0.4 12.7-6 18.7-11.3l4.6-3.8s3.7-3.2 4.4-3.9c0.1 0.2 0.2 0.7 0.2 0.7 0.4 0.9 0.6 1.9 0.6 2.9l-0.1 1.3c-0.1 0.6-1.1 4.5-2.5 5.6l-0.3 0.2-0.9 0.2c-3.3 0.9-7.1 1.8-8.5 5.2l-0.1 0.8c0 0.7 0.4 1.3 0.9 1.6 2.4 0.6 4.8 0 7-0.5l2.8-0.6c2.2 0 4.4 0.2 6.6 0.5 2.9 0.5 5.8 0.6 8.7 0.4 3.8-1 6.9-5.3 7.8-8.9l0.1-0.3-0.3 0.1c-4.6 2.4-10 2.5-14.7 0.3l-0.5-0.2c0.1-0.1 0.2-0.5 0.2-0.5 1.8-4.9 2.7-10.1 2.8-15.3v-1.2c-0.1-0.2-0.1-0.4-0.1-0.6 0.1-0.7 0.3-1.4 0.8-2 0.4-0.5 0.6-1.1 0.7-1.7v-0.3-0.2c-0.1-0.2-0.3-0.3-0.5-0.4-4-1.6-6.1 1.1-8.5 4.3zm-97.9 14.8c0.2-2 3.3-6 4.9-7.6 1.5-1.5 3.3-2.6 5.2-3.3 0.8-0.3 1.6-0.1 2.2 0.5 0.2 0.2 0.2 0.5 0.2 0.8 0 0.4-0.1 0.8-0.4 1.1-2 3.2-7.2 7.7-11.5 9l-0.8 0.3c0.1-0.2 0.2-0.8 0.2-0.8zm28.6-0.7c0.4-3 4.9-7.5 4.9-7.6 1.5-1.5 3.3-2.6 5.2-3.3 0.6-0.4 1.4-0.3 2 0.2 0.3 0.3 0.4 0.7 0.4 1.1s-0.1 0.8-0.3 1.2c-0.5 1.2-4 4.6-5 5.5-1.1 1.1-4.2 3.2-6.6 3.6l-0.7 0.1c0-0.3 0.1-0.8 0.1-0.8z"/><path fill="#fff" d="m123.8 6.9c-4.8 0.4-9.3 3.1-14.7 8.7-2.2 2.1-12.3 14.6-13.9 24.2v0.2l-0.3 0.1c-1.5 0.8-5.9 2.7-8.7 2-0.8-0.2-1.4-0.6-1.8-1.3-0.4-0.8-0.6-1.7-0.6-2.6 0-2.1 1.2-3.9 2.2-5.6l0.6-0.9h0.2c2.6-0.7 6.6-5.7 7.7-8.7v-0.1h-0.1c-3-1.9-7.1-1.8-9.9-1.5-5.1 0.7-10 2.6-14.3 5.5-5.1 3.5-9.6 10.7-10.5 15.1-0.5 2.5-0.8 5.1 0.9 6.3 3.7 2.1 10.9-1.7 15.8-6.5l1-1c0 0.5-0.2 1.9-0.2 1.9-0.1 0.6-0.1 1.3-0.1 2-0.1 1.2 0.3 2.5 1.1 3.4 4.1 3.2 12.4-0.3 17.1-3.5l0.4-0.3 0.3 0.4c1.5 1.8 3.2 3.8 5.2 4.1 5.2 0.7 9.2-2.3 12.8-5.6l0.7-0.7c0.1 0.4 0.3 1.7 0.3 1.7 0.3 1.3 0.5 2.6 1.5 3.4 2.6 2 8.4-0.7 11.7-3.1l1.2-0.8c-0.1 0.5-0.4 1.4-0.4 1.4-0.6 2.2-1.5 4.3-2.6 6.3l-0.9 1.8-0.2 0.2-0.3 0.4c-1.4 2.2-4 6.4-6.5 6.8h-0.2c-0.6-0.2-1-0.6-1.3-1.1l-0.2-0.9c0.1-1.2 0.5-2.4 1.1-3.5l0.1-0.2h-0.2c-1.2 0.2-2.3 0.7-3.4 1.3-2.3 1.4-4.8 4.5-4.8 7.3 0 0.6 0.1 1.1 0.3 1.6 0.5 0.8 1.4 1.2 2.3 1.1 16-1.5 25-19.7 31.6-32.9l1.3-2.6c0.3-0.3 0.4-0.6 0.5-1v-0.2l-0.2-0.3-0.2-1c0.3-1.3 3.4-4 3.4-4l0.4-0.3c0.2-0.1 0.4-0.3 0.5-0.6-0.1-0.3-0.3-0.5-0.5-0.6-1.2-0.7-2.5-1.1-3.9-1.4-4.8-1.4-13.1-0.3-20.6 6.9-0.8 0.8-2.2 2.6-3.4 4l-1.5 1.9c-3.7 4.3-7.4 8.7-13.7 7.5-0.9-0.3-1.6-1-2-1.9-0.2-0.5-0.2-1 0-1.4l0.1-0.2c3.8-2.8 7.4-5.9 10.6-9.3 6.1-6.5 13.6-17.5 12.6-20.3-0.6-1.6-2.8-1.6-3.4-1.6zm-50.7 21.5c3.4-1.7 7.5-1.5 10.8 0.3l0.6 0.3c-0.2 0.2-2.3 3.3-2.3 3.3-3.6 4.4-10.5 8.7-13.5 8.4-1.2 0.1-2.3-0.7-2.6-1.8v-0.9c0-3 3.9-7.5 6-8.9l1-0.7zm40.2-10.6c1.5-1.7 3.2-3.1 5.2-4.2 0.3-0.2 0.8-0.1 1 0.2 0.1 0.2 0.2 0.4 0.2 0.6s0 0.5-0.2 0.6c-1.4 5-10.6 15.7-15.8 19.4l-1 0.7c0-0.4 0.2-1.2 0.2-1.2 0.4-3.5 7.2-12.2 10.4-16.1zm10.2 22.8c-1.5-1-2-2.7-1.4-4.2 0.5-2 6-8 10.3-8.9 3.9-0.8 5.5 0.6 6.3 1.2 0 0 0.4 0.3 0.6 0.5l-2.1 2.3c-2.8 4.1-10.1 10.8-13.7 9.1z"/></svg>
