<?xml version="1.0" encoding="UTF-8" standalone="no"?>
<!DOCTYPE svg  PUBLIC '-//W3C//DTD SVG 1.1//EN'  'http://www.w3.org/Graphics/SVG/1.1/DTD/svg11.dtd'>
<svg stroke-linejoin="round" xmlns="http://www.w3.org/2000/svg" clip-rule="evenodd" fill-rule="evenodd" xml:space="preserve" height="100%" width="100%" version="1.1" xmlns:serif="http://www.serif.com/" stroke-miterlimit="2" xmlns:xlink="http://www.w3.org/1999/xlink" viewBox="0 0 1255 699">
    <g transform="translate(-332.98 -190.7)">
        <path fill="#fff" d="m672.54 482.31v-32.78h-59.54v201h61v-111.39c10.45-23.27 28.09-34.91 52.91-34.92 7.24-0.04 14.47 0.68 21.56 2.14v-57.72c-5.23-1.9-11.59-2.85-19.07-2.85-20.69 0-39.64 12.17-56.86 36.52z" fill-rule="nonzero"/>
    </g>
    <g transform="translate(-332.98 -190.7)">
        <path fill="#fff" d="m943.58 624c19.66-20 29.49-44.73 29.49-74.2 0-29.22-9.83-53.87-29.49-73.94s-44.07-30.11-73.23-30.11-53.54 10.08-73.13 30.25-29.39 44.77-29.4 73.8c0 29.03 9.8 53.66 29.4 73.88s43.98 30.33 73.13 30.34c29.16 0.03 53.57-9.98 73.23-30.02zm-105.47-39.48c-8.37-9.43-12.56-20.99-12.56-34.68 0-13.46 4.19-24.93 12.56-34.41s19.12-14.22 32.25-14.23c13.12 0 23.9 4.74 32.34 14.23s12.66 20.96 12.65 34.41c0 13.58-4.22 25.11-12.65 34.59s-19.21 14.22-32.34 14.22-23.88-4.71-32.25-14.13z" fill-rule="nonzero"/>
    </g>
    <g transform="translate(-332.98 -190.7)">
        <path fill="#fff" d="m1328.6 445.79c-28.2 0-52.2 9.86-71.8 29.58s-29.4 44.54-29.4 74.47c0 30.67 9.4 55.7 28.2 75.09s43.4 29.1 73.8 29.13c20.4 0 37.8-3.81 52.3-11.44 15.1-8.09 28.6-18.79 39.9-31.62l-44.1-24.71c-11.4 10.4-26.3 15.6-44.6 15.6-26.2 0-41.7-11.64-46.3-34.92h138.3c0-1.64 0.1-3.27 0.3-4.9 0.3-2.07 0.4-3.97 0.6-5.7 0.1-1.72 0.1-3.17 0.1-4.36 0-29.45-9.1-54.51-27.2-75.18-18.2-20.67-41.5-31.01-70.1-31.04zm-41.3 85c3-11.15 8-19.76 15.2-25.82 6.9-5.98 15.8-9.22 24.9-9.09 9 0 17.2 3.52 24.5 10.55s11.7 15.16 13.1 24.37l-77.7-0.01z" fill-rule="nonzero"/>
    </g>
    <g transform="translate(-332.98 -190.7)">
        <path fill="#fff" d="m1568 445.79c-20.7 0-39.6 12.18-56.8 36.53v-32.79h-59.5v201h60.9v-111.39c10.4-23.27 28.1-34.91 52.9-34.92 7.2-0.04 14.5 0.68 21.6 2.14v-57.72c-5.3-1.9-11.7-2.85-19.1-2.85z" fill-rule="nonzero"/>
    </g>
    <g transform="translate(-332.98 -190.7)">
        <path fill="#fff" d="m554.3 411.61c0.9-6.91 1.44-13.87 1.62-20.84h0.08c0-78.63 64-142.6 142.6-142.6s142.6 64 142.6 142.6h57.47c0-110.32-89.75-200.07-200.07-200.07-109.17 0-198.14 87.9-200 196.64h-0.1c-0.04 5.66-0.44 11.32-1.19 16.93-2.63 20.42-10.25 49.86-31.61 74.13-16.71 19-39.57 31.86-68.21 38.56v-133.53h-64.49v267.07h64.5v-74.83c18.94-3.18 37.37-8.9 54.79-17l58.16 91.82h77.15l-85.11-127.34c2.16-2.21 4.29-4.46 6.35-6.79 30.95-35.18 41.8-76.36 45.46-104.75z" fill-rule="nonzero"/>
    </g>
    <g transform="translate(-332.98 -190.7)">
        <path fill="#fff" d="m1201.7 709.27v-259.74h-58.1v17.11c-13.6-13.9-30.9-20.85-51.8-20.85-25.8 0-48.1 9.69-67 29.08s-28.34 43.43-28.34 72.13c0 28.55 9.64 52.35 29.04 71.4 19.3 19.05 41.4 28.57 66.2 28.56 20.2-0.12 37.7-5.68 52.6-16.68v79c-0.6 66.82-55.7 121.46-122.6 121.46-66.79 0-121.93-54.64-122.53-121.46h-57.46c0 99.27 80.76 180 179.99 180 97.5 0 177.1-77.89 179.9-174.7h0.1v-2.74c0-0.87 0.1-1.72 0.1-2.59l-0.1 0.02zm-70.1-128.2c-8.2 9.11-19.1 13.66-32.5 13.66-13.2 0-24-4.55-32.3-13.66-8.4-9.11-12.6-20.44-12.6-34 0-13.55 4.2-24.88 12.6-34 8.3-9.12 19.1-13.68 32.3-13.67 13.3 0 24.1 4.56 32.4 13.67s12.5 20.45 12.5 34-4.1 24.89-12.4 34z" fill-rule="nonzero"/>
    </g>
    <g transform="translate(-332.98 -190.7)">
        <path fill="#fff" d="m1246.6 802.89c-0.3 11.93-10.2 21.61-22.1 21.61s-21.8-9.68-22.1-21.61c0-11.92 9.9-21.49 22.2-21.49s22 9.6 22 21.49zm-38.7 0c0 9.56 7.1 17.16 16.8 17.16 9.4 0 16.4-7.6 16.4-17s-6.9-17.29-16.5-17.29-16.6 7.7-16.6 17.13h-0.1zm13.3 11.27h-5v-21.49c2.7-0.48 5.5-0.69 8.2-0.65 4.1 0 5.9 0.65 7.5 1.57 1.4 1.17 2.1 2.91 2.1 4.72 0 2.36-1.8 4.19-4.5 5v0.26c2.1 0.79 3.3 2.36 4 5.24 0.6 3.27 1 4.58 1.5 5.37h-5.3c-0.7-0.79-1-2.75-1.7-5.24-0.4-2.36-1.7-3.41-4.5-3.41h-2.3v8.63zm0.1-12.18h2.4c2.7 0 5-0.92 5-3.14 0-2-1.5-3.28-4.6-3.28-0.9-0.02-1.9 0.07-2.8 0.26v6.16z" fill-rule="nonzero"/>
    </g>
</svg>
