<?xml version="1.0" encoding="UTF-8" standalone="no"?>
<!DOCTYPE svg  PUBLIC '-//W3C//DTD SVG 1.1//EN'  'http://www.w3.org/Graphics/SVG/1.1/DTD/svg11.dtd'>
<svg stroke-linejoin="round" xmlns="http://www.w3.org/2000/svg" clip-rule="evenodd" fill-rule="evenodd" xml:space="preserve" height="100%" width="100%" version="1.1" xmlns:serif="http://www.serif.com/" stroke-miterlimit="1.4142" xmlns:xlink="http://www.w3.org/1999/xlink" viewBox="0 0 593 140"><g fill="#fff" fill-rule="nonzero"><path d="m326.49 88.555c0 1.123-0.099 2.281-0.408 3.294-1.273 4.215-5.64 7.779-11.1 7.779-4.553 0-8.169-2.584-8.169-8.049 0-8.358 9.202-10.67 19.677-10.615v7.591zm16.434-14.565c0-13.791-5.89-25.921-25.794-25.921-10.22 0-18.332 2.871-22.759 5.427l3.241 11.083c4.044-2.552 10.494-4.665 16.594-4.665 10.097-0.025 11.753 5.715 11.753 9.396v0.871c-22.014-0.034-35.923 7.585-35.923 23.115 0 9.481 7.084 18.367 19.401 18.367 7.572 0 13.911-3.023 17.702-7.866h0.375s2.514 10.517 16.373 6.495c-0.729-4.377-0.963-9.043-0.963-14.663v-21.639z"/><path d="m0 29.292s14.38 58.933 16.675 68.498c2.679 11.165 7.507 15.273 21.423 12.502l8.981-36.54c2.276-9.075 3.803-15.545 5.267-24.776h0.257c1.028 9.323 2.492 15.729 4.365 24.809 0 0 3.656 16.586 5.527 25.298 1.878 8.709 7.1 14.197 20.732 11.209l21.399-81h-17.276l-7.307 35.019c-1.964 10.194-3.744 18.16-5.119 27.485h-0.245c-1.249-9.235-2.837-16.883-4.835-26.814l-7.607-35.69h-17.999l-8.136 34.791c-2.305 10.572-4.461 19.108-5.832 28.117h-0.247c-1.405-8.483-3.276-19.212-5.3-29.445 0 0-4.834-24.886-6.53-33.463h-18.193z"/><path d="m137.29 88.555c0 1.123-0.097 2.281-0.408 3.294-1.273 4.215-5.64 7.779-11.1 7.779-4.552 0-8.168-2.584-8.168-8.049 0-8.358 9.201-10.67 19.676-10.615v7.591zm16.431-14.565c0-13.791-5.889-25.921-25.79-25.921-10.222 0-18.336 2.871-22.759 5.427l3.237 11.083c4.048-2.552 10.492-4.665 16.595-4.665 10.104-0.025 11.757 5.715 11.757 9.396v0.871c-22.017-0.034-35.924 7.585-35.924 23.115 0 9.481 7.08 18.367 19.39 18.367 7.578 0 13.915-3.023 17.713-7.866h0.372s2.516 10.517 16.373 6.495c-0.728-4.377-0.964-9.043-0.964-14.663v-21.639z"/><path d="m181.14 93.095v-63.803h-16.448v81h16.448v-17.197z"/><path d="m396.35 29.292v59.755c0 8.237 1.551 14.009 4.868 17.535 2.898 3.084 7.671 5.081 13.391 5.081 4.863 0 9.648-0.923 11.903-1.763l-0.212-12.852c-1.678 0.412-3.608 0.742-6.248 0.742-5.603 0-7.482-3.589-7.482-10.985v-22.861h14.325v-15.498h-14.325v-19.154h-16.22z"/><path d="m353.89 49.442v60.85h16.968v-31.157c0-1.682 0.102-3.148 0.368-4.491 1.255-6.528 6.248-10.7 13.413-10.7 1.967 0 3.374 0.213 4.897 0.434v-15.932c-1.277-0.258-2.15-0.377-3.739-0.377-6.332 0-13.536 4.088-16.56 12.851h-0.461v-11.478h-14.886z"/><path d="m192.66 49.442v60.85h16.535v-35.686c0-1.672 0.192-3.441 0.776-4.98 1.37-3.593 4.712-7.796 10.049-7.796 6.672 0 9.794 5.642 9.794 13.782v34.68h16.518v-36.116c0-1.598 0.219-3.521 0.689-4.933 1.358-4.087 4.961-7.413 9.922-7.413 6.764 0 10.011 5.542 10.011 15.121v33.341h16.529v-35.838c0-18.9-9.596-26.385-20.43-26.385-4.799 0-8.585 1.203-12.009 3.305-2.878 1.767-5.455 4.275-7.707 7.579h-0.244c-2.614-6.558-8.761-10.884-16.77-10.884-10.293 0-14.917 5.216-17.722 9.642h-0.245v-8.269h-15.696z"/><path d="m515.82 46.99c3.27 0 5.961-1.698 6.326-3.897l3.232-36.517c0-3.61-4.228-6.576-9.548-6.576-5.31 0-9.532 2.966-9.532 6.576l3.225 36.517c0.356 2.199 3.05 3.897 6.309 3.897h-0.012z"/><path d="m496.08 58.398c1.641-2.828 1.514-6.011-0.213-7.422l-30.016-21.052c-3.118-1.805-7.8 0.368-10.456 4.973-2.664 4.6-2.192 9.739 0.925 11.542l33.232 15.475c2.081 0.774 4.909-0.708 6.54-3.536l-0.012 0.02z"/><path d="m535.57 58.378c1.637 2.828 4.456 4.31 6.537 3.536l33.237-15.475c3.13-1.803 3.579-6.942 0.933-11.542-2.668-4.605-7.355-6.778-10.467-4.973l-30.017 21.052c-1.717 1.411-1.844 4.594-0.211 7.422l-0.012-0.02z"/><path d="m515.82 92.603c3.27 0 5.961 1.689 6.326 3.886l3.232 36.515c0 3.616-4.228 6.575-9.548 6.575-5.31 0-9.532-2.959-9.532-6.575l3.225-36.515c0.356-2.197 3.05-3.886 6.309-3.886h-0.012z"/><path d="m535.57 81.198c1.637-2.833 4.456-4.304 6.537-3.521l33.237 15.457c3.13 1.81 3.579 6.952 0.933 11.556-2.668 4.59-7.355 6.771-10.467 4.971l-30.017-21.035c-1.717-1.428-1.844-4.607-0.211-7.434l-0.012 0.006z"/><path d="m496.08 81.192c1.641 2.827 1.514 6.006-0.213 7.434l-30.016 21.035c-3.118 1.8-7.8-0.381-10.456-4.971-2.664-4.604-2.192-9.746 0.925-11.556l33.232-15.457c2.081-0.783 4.909 0.688 6.542 3.521l-0.014-0.006z"/><path d="m586.06 107.22h0.687c0.75 0 1.404-0.23 1.404-0.882 0-0.524-0.324-0.885-1.306-0.885-0.391 0-0.619 0.033-0.785 0.066v1.701zm0 3.073h-1.012v-5.459c0.554-0.098 1.142-0.164 1.896-0.164 0.916 0 1.373 0.164 1.731 0.423 0.33 0.229 0.554 0.655 0.554 1.147 0 0.687-0.486 1.111-1.078 1.307v0.066c0.493 0.195 0.754 0.621 0.918 1.309 0.16 0.847 0.262 1.175 0.393 1.371h-1.047c-0.164-0.196-0.293-0.686-0.426-1.438-0.129-0.588-0.492-0.85-1.275-0.85h-0.654v2.288zm0.917-7.163c-2.355 0-4.154 1.93-4.154 4.284 0 2.424 1.799 4.316 4.219 4.316 2.357 0.037 4.088-1.892 4.088-4.281s-1.731-4.319-4.119-4.319h-0.034zm0.065-0.914c2.943 0 5.266 2.289 5.266 5.198 0 2.978-2.323 5.267-5.297 5.267-2.977 0-5.332-2.289-5.332-5.267 0-2.909 2.355-5.198 5.332-5.198h0.031z"/></g></svg>
