<?xml version="1.0" encoding="UTF-8" standalone="no"?>
<!DOCTYPE svg PUBLIC "-//W3C//DTD SVG 1.1//EN" "http://www.w3.org/Graphics/SVG/1.1/DTD/svg11.dtd">
<svg width="100%" height="100%" viewBox="0 0 4159 683" version="1.1" xmlns="http://www.w3.org/2000/svg" xmlns:xlink="http://www.w3.org/1999/xlink" xml:space="preserve" xmlns:serif="http://www.serif.com/" style="fill-rule:evenodd;clip-rule:evenodd;stroke-linejoin:round;stroke-miterlimit:2;">
    <g transform="matrix(4.16667,0,0,4.16667,2344.45,396.537)">
        <path d="M0,-18.93C2.49,-29.391 11.208,-36.365 22.417,-36.365C34.87,-36.365 43.588,-29.64 44.585,-18.93L0,-18.93ZM62.269,-4.234C63.017,-6.725 63.017,-10.461 63.017,-12.703C63.017,-36.365 45.83,-52.306 23.164,-52.306C-1.743,-52.306 -19.927,-32.131 -19.927,-7.722C-19.927,18.93 -2.491,34.372 21.67,34.372C36.365,34.372 50.064,30.388 58.533,21.67L48.819,10.212C43.339,14.695 33.625,17.934 24.16,17.934C9.714,17.934 0,9.465 -0.996,-4.234L62.269,-4.234ZM348.707,-18.93C351.198,-29.391 359.916,-36.365 371.124,-36.365C383.578,-36.365 392.296,-29.64 393.292,-18.93L348.707,-18.93ZM410.977,-4.234C411.724,-6.725 411.724,-10.461 411.724,-12.703C411.724,-36.365 394.537,-52.306 371.871,-52.306C346.964,-52.306 328.781,-32.131 328.781,-7.722C328.781,18.93 346.217,34.372 370.377,34.372C385.072,34.372 398.771,30.388 407.24,21.67L397.526,10.212C392.047,14.695 382.333,17.934 372.868,17.934C358.421,17.934 348.707,9.465 347.711,-4.234L410.977,-4.234ZM-300.885,-78.459C-308.855,-83.939 -321.31,-87.675 -335.507,-87.675C-357.924,-87.675 -378.846,-74.225 -378.846,-52.306C-378.846,-29.142 -360.912,-22.666 -343.976,-18.182C-326.54,-13.45 -318.818,-10.71 -318.818,-0.249C-318.818,10.212 -327.536,17.436 -343.477,17.436C-353.44,17.436 -365.146,14.197 -372.619,8.22L-383.08,22.915C-375.109,30.138 -361.659,34.621 -344.723,34.621C-318.071,34.621 -298.893,19.677 -298.893,-2.74C-298.893,-26.9 -315.58,-31.135 -337.499,-37.113C-350.451,-40.848 -358.92,-43.588 -358.92,-54.548C-358.92,-65.756 -346.715,-70.489 -337.499,-70.489C-325.294,-70.489 -318.071,-67.998 -309.852,-64.013L-300.885,-78.459ZM160.903,10.212C153.182,14.945 142.472,16.938 133.505,16.938C113.33,16.938 94.4,2.989 94.4,-27.149C94.4,-52.057 112.334,-69.493 135.747,-69.493C144.714,-69.493 152.933,-67.749 159.409,-64.013L170.368,-78.459C159.658,-85.682 146.706,-87.675 134.999,-87.675C101.125,-87.675 73.478,-60.526 73.478,-26.9C73.478,-9.714 77.463,4.235 86.43,14.945C96.393,26.901 111.586,34.621 131.015,34.621C145.71,34.621 158.662,31.633 169.123,24.16L160.903,10.212ZM242.601,-8.967C242.601,5.729 232.14,17.934 216.696,17.934C201.503,17.934 191.789,5.231 191.789,-8.967C191.789,-23.662 202.001,-35.867 216.696,-35.867C232.14,-35.867 242.601,-23.413 242.601,-8.967M-286.687,-70.987C-286.687,-65.009 -281.955,-60.526 -275.728,-60.526C-269.999,-60.526 -265.018,-65.009 -265.018,-70.987C-265.018,-76.965 -269.999,-81.448 -275.728,-81.448C-281.706,-81.448 -286.687,-76.965 -286.687,-70.987M331.521,-49.815C329.03,-51.061 324.796,-52.306 319.814,-52.306C311.097,-52.306 302.13,-47.076 298.145,-39.105L298.145,-50.812L278.966,-50.812L278.966,32.878L298.145,32.878L298.145,-11.707C298.145,-26.651 307.609,-34.372 317.822,-34.372C321.309,-34.372 324.049,-33.874 326.789,-32.878L331.521,-49.815ZM242.601,-50.812L242.601,-38.109L242.103,-38.109C237.868,-46.826 226.909,-52.306 214.206,-52.306C190.544,-52.306 172.361,-32.878 172.361,-8.469C172.361,18.183 190.295,34.372 212.712,34.372C226.411,34.372 236.872,28.395 242.103,18.681L242.601,18.681L242.601,32.878L261.779,32.878L261.779,-50.812L242.601,-50.812ZM-31.633,-85.931L-50.812,-85.931L-50.812,32.879L-31.633,32.879L-31.633,-85.931ZM-87.177,-9.714C-87.177,4.733 -97.639,16.44 -113.081,16.44C-128.274,16.44 -137.988,4.235 -137.988,-9.714C-137.988,-24.16 -127.776,-35.867 -113.081,-35.867C-97.639,-35.867 -87.177,-23.911 -87.177,-9.714M-87.177,-50.812L-87.177,-38.109L-87.675,-38.109C-91.909,-46.826 -102.869,-52.306 -115.571,-52.306C-139.234,-52.306 -157.417,-32.38 -157.417,-8.967C-157.417,17.187 -139.732,33.127 -117.813,33.127C-104.363,33.127 -93.154,28.146 -87.675,18.183L-87.177,18.183L-87.177,24.16C-87.177,31.882 -88.672,37.362 -91.66,41.347C-96.393,47.822 -104.363,51.808 -116.568,51.808C-127.527,51.808 -137.241,48.82 -144.216,43.837L-153.432,57.786C-144.216,65.507 -129.77,68.745 -116.568,68.745C-99.631,68.745 -84.936,62.269 -76.965,52.306C-71.236,45.083 -67.998,36.116 -67.998,21.919L-67.998,-50.812L-87.177,-50.812ZM-169.372,-14.944C-169.372,-38.358 -182.822,-52.306 -204.492,-52.306C-215.7,-52.306 -224.916,-47.574 -229.898,-37.86L-229.898,-50.812L-249.077,-50.812L-249.077,32.878L-229.898,32.878L-229.898,-12.205C-229.898,-25.655 -220.932,-35.867 -208.478,-35.867C-196.023,-35.867 -188.551,-26.402 -188.551,-13.201L-188.551,32.878L-169.372,32.878L-169.372,-14.944ZM-285.442,32.878L-266.263,32.878L-266.263,-50.812L-285.442,-50.812L-285.442,32.878Z" style="fill:white;fill-rule:nonzero;"/>
    </g>
    <g transform="matrix(4.16667,0,0,4.16667,134,298.663)">
        <path d="M0,-7.359C17.715,-7.359 32.161,-21.804 32.161,-39.519L32.161,-71.679C14.445,-71.679 0,-57.234 0,-39.519C-17.715,-39.519 -32.16,-25.074 -32.16,-7.359L0,-7.359ZM103.839,-7.359C103.839,-25.074 89.395,-39.519 71.679,-39.519C71.679,-57.234 57.235,-71.679 39.519,-71.679L39.519,-39.519C39.519,-21.804 53.964,-7.359 71.679,-7.359L103.839,-7.359ZM-32.16,0C-32.16,17.715 -17.715,32.16 0,32.16C0,49.876 14.445,64.32 32.161,64.32L32.161,32.16C32.161,14.445 17.715,0 0,0L-32.16,0ZM71.679,0C53.964,0 39.519,14.445 39.519,32.16L39.519,64.32C57.235,64.32 71.679,49.876 71.679,32.16C89.395,32.16 103.839,17.715 103.839,0L71.679,0Z" style="fill:rgb(62,199,244);fill-rule:nonzero;"/>
    </g>
    <g transform="matrix(4.16667,0,0,4.16667,4104.53,190.713)">
        <path d="M0,-1.431L2.033,-1.431C3.752,-1.431 5.326,-1.517 5.326,-3.494C5.326,-5.154 3.895,-5.412 2.577,-5.412L0,-5.412L0,-1.431ZM-1.947,-6.987L2.893,-6.987C5.871,-6.987 7.274,-5.813 7.274,-3.407C7.274,-1.145 5.842,-0.2 3.98,0.001L7.561,5.527L5.47,5.527L2.062,0.144L0,0.144L0,5.527L-1.947,5.527L-1.947,-6.987ZM2.233,8.42C7.188,8.42 11.025,4.468 11.025,-0.773C11.025,-5.899 7.188,-9.851 2.233,-9.851C-2.807,-9.851 -6.615,-5.899 -6.615,-0.773C-6.615,4.468 -2.807,8.42 2.233,8.42M2.233,-11.426C8.076,-11.426 12.973,-6.815 12.973,-0.773C12.973,5.384 8.076,9.995 2.233,9.995C-3.637,9.995 -8.563,5.384 -8.563,-0.773C-8.563,-6.815 -3.637,-11.426 2.233,-11.426" style="fill:white;fill-rule:nonzero;"/>
    </g>
</svg>
